<?xml version="1.0" standalone="no"?><!DOCTYPE svg PUBLIC "-//W3C//DTD SVG 1.1//EN" "http://www.w3.org/Graphics/SVG/1.1/DTD/svg11.dtd"><svg t="1563184181550" class="icon" viewBox="0 0 1024 1024" version="1.1" xmlns="http://www.w3.org/2000/svg" p-id="3821" xmlns:xlink="http://www.w3.org/1999/xlink" width="200" height="200"><defs><style type="text/css"></style></defs><path d="M547.083786 540.053184a16.800632 16.800632 0 0 1-4.462248-8.897615V159.444956a139.781255 139.781255 0 0 0-26.719724-82.363416c-20.026353-26.692843-46.746077-48.95032-80.132292-60.079059-66.77243-26.719724-142.469356-22.257477-204.752658 15.590986a140.883376 140.883376 0 0 0-51.07392 51.07392c-15.590986 24.488601-22.257477 51.07392-22.257476 80.105412v367.355889a17.01568 17.01568 0 0 1-4.462248 11.128739c-68.976673 66.77243-97.927521 166.931075-77.954931 260.396349a280.046368 280.046368 0 0 0 316.040041 218.112519 259.025417 259.025417 0 0 0 144.673599-69.003554 278.057173 278.057173 0 0 0 91.261031-253.702977c-6.666491-60.10594-35.617339-115.749631-80.105412-158.033461z m6.666491 233.703505c-8.897614 55.643692-40.052706 106.825136-86.798783 137.980227a207.655806 207.655806 0 0 1-86.798783 33.386215A199.645265 199.645265 0 0 1 222.226774 900.527535c-37.821582-28.923967-62.310182-71.207797-71.234678-117.953874-15.564105-73.438921 11.128738-149.108965 69.003554-198.086167a37.76782 37.76782 0 0 0 13.440505-13.440505 30.886281 30.886281 0 0 0 0-20.026353V163.987847c0-26.719724 13.440505-53.412568 35.617339-66.772431 28.923967-17.795229 64.514425-26.692843 97.927522-22.257476a132.577144 132.577144 0 0 1 71.207797 26.719724c20.053234 15.590986 31.155091 37.848463 31.155091 60.10594v400.527057a17.042561 17.042561 0 0 0 4.462248 11.128738 226.042417 226.042417 0 0 1 66.77243 84.567659 208.677285 208.677285 0 0 1 13.440505 115.72275z" p-id="3822"></path><path d="M413.538926 613.492105c-4.462248-2.231124-6.666491-4.462248-6.666491-8.897615v-224.805891c0-15.590986-6.666491-28.923967-20.026353-35.617339a71.28844 71.28844 0 0 0-60.105939-6.66649 44.595596 44.595596 0 0 0-35.617339 48.977201v220.424286A11.558835 11.558835 0 0 1 286.741199 615.588823c-71.234678 33.386215-102.389769 120.184998-69.003554 191.392795s120.184998 102.389769 191.419676 69.003554c55.643692-26.719724 89.029907-84.567659 80.105412-146.877841-2.204243-53.412568-31.155091-95.696397-75.670045-115.72275z" p-id="3823"></path><path d="M772.427297 298.849876a46.880482 46.880482 0 1 1 46.880483-46.880482 46.880482 46.880482 0 0 1-46.880483 46.880482z m0-67.84767a20.886545 20.886545 0 1 0 20.886546 20.886545 20.886545 20.886545 0 0 0-20.886546-20.886545z m0 0" fill="#262626" p-id="3824"></path><path d="M772.427297 230.975325a13.117933 13.117933 0 0 1-13.144814-13.225457V82.215813a13.117933 13.117933 0 0 1 26.101462 0v135.722222a13.117933 13.117933 0 0 1-12.983529 13.064171z m0 0" fill="#262626" p-id="3825"></path><path d="M772.427297 140.493843a13.010409 13.010409 0 0 1-9.220186-3.763341L717.96637 91.409118a13.117933 13.117933 0 0 1 18.467254-18.467254L781.647484 118.290129a13.117933 13.117933 0 0 1-9.220187 22.284357z m0 0" fill="#262626" p-id="3826"></path><path d="M772.427297 140.493843a13.117933 13.117933 0 0 1-9.220186-22.203714l45.240741-45.240741a13.117933 13.117933 0 0 1 18.440373 18.35973l-45.240741 45.267622a13.010409 13.010409 0 0 1-9.220187 3.817103z m0 294.051375a13.144814 13.144814 0 0 1-13.117933-13.117934v-135.641579a13.117933 13.117933 0 0 1 26.101462 0v135.722222a13.117933 13.117933 0 0 1-12.983529 13.064172z m0 0" fill="#262626" p-id="3827"></path><path d="M817.668038 434.572099a13.03729 13.03729 0 0 1-9.220186-3.763342l-45.240741-45.321384a13.117933 13.117933 0 1 1 18.467254-18.467254l45.240741 45.240741a13.117933 13.117933 0 0 1-9.220187 22.284358z m0 0" fill="#262626" p-id="3828"></path><path d="M727.186557 434.572099a13.117933 13.117933 0 0 1-9.220187-22.284358l45.240741-45.240741a13.117933 13.117933 0 1 1 18.467254 18.467254l-45.240741 45.240741a13.010409 13.010409 0 0 1-9.220186 3.817104z m45.321383-135.534055a47.122411 47.122411 0 1 1 23.413361-6.3708 47.122411 47.122411 0 0 1-23.413361 6.3708z m0-68.116481a20.617735 20.617735 0 0 0-10.402951 2.688101 21.074712 21.074712 0 0 0-7.661088 28.708919 20.832783 20.832783 0 0 0 28.520753 7.687969 20.994069 20.994069 0 0 0-10.456714-39.192513z m0 0" fill="#262626" p-id="3829"></path><path d="M801.835123 247.910361a13.117933 13.117933 0 0 1-6.558967-24.381076l117.604421-68.0896a13.117933 13.117933 0 1 1 13.117934 22.499406l-117.57754 68.0896a12.983528 12.983528 0 0 1-6.585848 1.88167z m0 0" fill="#262626" p-id="3830"></path><path d="M880.247031 202.508335a13.117933 13.117933 0 0 1-12.634075-16.424298l16.558702-62.014491a13.117933 13.117933 0 1 1 25.214388 6.747134l-16.558702 62.014491a13.117933 13.117933 0 0 1-12.580313 9.704045z m0 0" fill="#262626" p-id="3831"></path><path d="M941.992712 219.120799a13.144814 13.144814 0 0 1-3.387007-0.456977l-61.826325-16.612464a13.117933 13.117933 0 1 1 6.720253-25.214388L945.325957 193.556958a13.117933 13.117933 0 0 1-3.387007 25.671365zM625.441932 350.03132a13.117933 13.117933 0 0 1-6.558967-24.381076l117.604421-68.0896a13.117933 13.117933 0 1 1 13.117934 22.499406l-117.604422 68.0896a12.983528 12.983528 0 0 1-6.585847 1.88167z m0 0" fill="#262626" p-id="3832"></path><path d="M648.075743 389.331358a13.117933 13.117933 0 0 1-12.634075-16.424298l16.558702-62.014491a13.117933 13.117933 0 1 1 25.214388 6.747134l-16.558702 62.041372a13.117933 13.117933 0 0 1-12.580313 9.650283z m0 0" fill="#262626" p-id="3833"></path><path d="M664.634445 327.343748a13.064171 13.064171 0 0 1-3.387007-0.456978l-61.826324-16.612464a13.117933 13.117933 0 0 1 6.908419-25.214388l61.826325 16.612465a13.117933 13.117933 0 0 1-3.387008 25.644484z m107.712209-28.305704a46.611672 46.611672 0 0 1-23.41336-6.343919 47.068649 47.068649 0 1 1 64.218734-17.230728 47.068649 47.068649 0 0 1-40.805374 23.574647z m0-68.116481a20.886545 20.886545 0 1 0 10.349189 2.688101 20.617735 20.617735 0 0 0-10.349189-2.688101z m0 0" fill="#262626" p-id="3834"></path><path d="M743.019472 247.910361a12.956647 12.956647 0 0 1-6.532086-1.774146l-117.604421-68.0896a13.117933 13.117933 0 0 1 13.117933-22.499406l117.604422 68.0896a13.117933 13.117933 0 0 1-6.558967 24.381077z m0 0" fill="#262626" p-id="3835"></path><path d="M664.607564 202.508335a13.117933 13.117933 0 0 1-12.607194-9.677164l-16.558702-62.014491a13.117933 13.117933 0 1 1 25.214388-6.720253l16.558702 62.014491a13.117933 13.117933 0 0 1-12.634075 16.424298z m0 0" fill="#262626" p-id="3836"></path><path d="M602.78124 219.120799a13.117933 13.117933 0 0 1-3.387007-25.563841l61.826324-16.612464a13.117933 13.117933 0 1 1 6.774015 25.214388l-61.826325 16.612464a13.144814 13.144814 0 0 1-3.387007 0.456977z m316.712066 130.910521a12.956647 12.956647 0 0 1-6.532086-1.774146l-117.604421-68.0896a13.117933 13.117933 0 0 1 13.117934-22.499406l117.604421 68.0896a13.117933 13.117933 0 0 1-6.558967 24.381077z m0 0" fill="#262626" p-id="3837"></path><path d="M896.805733 389.331358a13.117933 13.117933 0 0 1-12.607194-9.677164l-16.558702-62.014491a13.117933 13.117933 0 1 1 25.214388-6.747134l16.558702 62.014491a13.117933 13.117933 0 0 1-12.634075 16.424298z m0 0" fill="#262626" p-id="3838"></path><path d="M880.22015 327.343748a13.117933 13.117933 0 0 1-3.387008-25.644484l61.826325-16.612465a13.117933 13.117933 0 0 1 6.720252 25.214388l-61.826324 16.612464a13.091052 13.091052 0 0 1-3.333245 0.430097z m0 0" fill="#262626" p-id="3839"></path></svg>